<svg width="49" height="49" fill="none" xmlns="http://www.w3.org/2000/svg">
  <circle cx="24.5" cy="24.5" r="23.5" stroke="#323232" stroke-width="2"/>
  <path d="M24 8a8.01 8.01 0 0 0-7.944 7.059H16v15.887h16V15.059h-.056A8.01 8.01 0 0 0 24 8Zm6.118 21.064H17.882v-8.678a1.685 1.685 0 0 0 1.45.602c1.214 0 2.005-.677 2.005-1.534v-.819a.808.808 0 0 1 1.407-.628.81.81 0 0 1 .202.628v3.097a1.76 1.76 0 0 0 1.995 1.722 1.75 1.75 0 0 0 1.995-1.647v-2.08a1.269 1.269 0 0 1 1.778-1.272 1.268 1.268 0 0 1 .754 1.272.387.387 0 0 0 0 .085 1.064 1.064 0 0 0 .63.837v8.471l.02-.056Zm-7.53 9.524a1.412 1.412 0 0 0 2.824 0v-6.7h-2.824v6.7Z" fill="#323232"/>
</svg>
