<svg width="49" height="49" fill="none" xmlns="http://www.w3.org/2000/svg">
  <circle cx="24.5" cy="24.5" r="23.5" stroke="#323232" stroke-width="2"/>
  <path d="M31.992 26.597c-.348-7.658-7.127-15.073-7.429-15.396h-.039l-.093-.104-.1-.065h-.434L23.75 11h-.04l-.139.097-.085.072h-.038c-.303.355-7.081 7.779-7.445 15.428a1.225 1.225 0 0 0 0 .169v.879c.294 8.302 7.747 10.333 7.809 10.35h.193c.065.007.13.007.194 0 .07 0 7.514-2.088 7.801-10.35v-.879c0-.056-.008-.113-.008-.17Zm-13.944-2.83a19.087 19.087 0 0 0 5.183 3.313v3.668c-1.898-.976-4.819-2.708-5.679-4.232.07-.93.228-1.85.473-2.748h.023Zm1.55-4.11a9.527 9.527 0 0 0 3.633 2.466V25.3a14.87 14.87 0 0 1-4.648-3.224c.294-.825.633-1.633 1.014-2.418Zm9.846 2.418a14.833 14.833 0 0 1-4.648 3.224v-3.176a9.53 9.53 0 0 0 3.602-2.466c.39.774.74 1.57 1.046 2.386v.032Zm-4.648-1.66v-6.449a36.437 36.437 0 0 1 2.827 4.176 7.078 7.078 0 0 1-2.843 2.24l.015.032Zm0 10.349V27.08A19.077 19.077 0 0 0 30 23.784a14.6 14.6 0 0 1 .45 2.756c-.852 1.5-3.773 3.225-5.671 4.192l.015.032Zm-1.55-10.35a7.014 7.014 0 0 1-2.843-2.273 36.455 36.455 0 0 1 2.828-4.215l.015 6.489Zm-5.531 8.65a25.911 25.911 0 0 0 5.516 3.457v3.547a9.136 9.136 0 0 1-3.615-2.772 9.646 9.646 0 0 1-1.901-4.233Zm7.065 7.012v-3.563a25.494 25.494 0 0 0 5.516-3.45 9.516 9.516 0 0 1-1.886 4.249 9.007 9.007 0 0 1-3.63 2.764Z" fill="#323232"/>
</svg>
