<svg width="49" height="49" fill="none" xmlns="http://www.w3.org/2000/svg">
  <circle cx="24.5" cy="24.5" r="23.5" stroke="#323232" stroke-width="2"/>
  <path d="M27.59 15.119a4.18 4.18 0 0 0-1.171-2.913A3.942 3.942 0 0 0 23.59 11c-1.06 0-2.078.434-2.828 1.206a4.182 4.182 0 0 0-1.172 2.913v11.988A5.822 5.822 0 0 0 18 31.144a5.977 5.977 0 0 0 .67 2.77 5.781 5.781 0 0 0 1.865 2.113c.782.534 1.68.86 2.615.948a5.522 5.522 0 0 0 2.74-.44 5.69 5.69 0 0 0 2.208-1.727 5.922 5.922 0 0 0 1.15-2.597 6.021 6.021 0 0 0-.184-2.85 5.865 5.865 0 0 0-1.474-2.418V15.12Zm.144 16.025a4.292 4.292 0 0 1-.493 2.048 4.147 4.147 0 0 1-1.398 1.541 3.972 3.972 0 0 1-3.959.231 4.106 4.106 0 0 1-1.558-1.368 4.305 4.305 0 0 1-.403-4.062 4.178 4.178 0 0 1 1.258-1.665v-12.75c0-.658.254-1.29.706-1.755a2.375 2.375 0 0 1 1.703-.726c.64 0 1.252.261 1.704.726.452.466.706 1.097.706 1.755v12.594c.537.385.975.899 1.277 1.496a4.28 4.28 0 0 1 .457 1.935Z" fill="#323232"/>
  <path d="M24.457 28.581V15.176a.832.832 0 0 0-.233-.579.784.784 0 0 0-.562-.24.784.784 0 0 0-.562.24.831.831 0 0 0-.233.58V28.58c-.53.193-.978.573-1.263 1.073a2.52 2.52 0 0 0-.293 1.659c.095.57.383 1.09.813 1.463.43.373.975.578 1.538.578.563 0 1.108-.205 1.538-.578.43-.374.718-.892.813-1.463a2.519 2.519 0 0 0-.293-1.659c-.285-.5-.732-.88-1.263-1.073ZM34 14.202h-4.771v1.637H34v-1.637Zm0 3.275h-4.771v1.638H34v-1.638Zm0 3.276h-4.771v1.637H34v-1.637Zm0 3.275h-4.771v1.638H34v-1.638Z" fill="#323232"/>
</svg>
