<svg width="36" height="36" fill="none" xmlns="http://www.w3.org/2000/svg">
  <path d="M18 35c9.389 0 17-7.611 17-17S27.389 1 18 1 1 8.611 1 18s7.611 17 17 17Z" stroke="#fff" stroke-opacity=".5" stroke-width="2"/>
  <path d="M18.64 16.49c.325 0 .648-.06.95-.18a1.2 1.2 0 0 0 .64-.56 2 2 0 0 0 .15-.8 1.55 1.55 0 0 0-.18-.7 1.05 1.05 0 0 0-.61-.51 3 3 0 0 0-1-.17h-2v3h.57c.59-.05 1.08-.06 1.48-.08ZM20.12 19.08A4.851 4.851 0 0 0 19 19h-2.39v3.5h2.45a3.23 3.23 0 0 0 1.21-.25c.321-.11.593-.33.77-.62a1.9 1.9 0 0 0 .22-.9 1.76 1.76 0 0 0-.26-1 1.6 1.6 0 0 0-.88-.65Z" fill="#fff" fill-opacity=".8"/>
  <path d="M18 2a16 16 0 1 0 0 32 16 16 0 0 0 0-32Zm6.6 20.53a3.7 3.7 0 0 1-1.12 1.33 5.17 5.17 0 0 1-1.83.88 9.76 9.76 0 0 1-2.51.27H13V11h5.45c.828-.013 1.656.024 2.48.11.543.084 1.07.253 1.56.5a2.75 2.75 0 0 1 1.19 1.09c.265.473.4 1.008.39 1.55a3.08 3.08 0 0 1-.54 1.8 3.46 3.46 0 0 1-1.53 1.2v.07a4 4 0 0 1 2.18 1.13 3.2 3.2 0 0 1 .8 2.26 3.841 3.841 0 0 1-.38 1.82Z" fill="#fff" fill-opacity=".8"/>
</svg>
